<svg width="20" height="20" viewBox="0 0 20 20" fill="none" xmlns="http://www.w3.org/2000/svg">
<path fill-rule="evenodd" clip-rule="evenodd" d="M13.1939 4.26262C13.2907 4.15905 13.3676 4.0359 13.4201 3.90025C13.4726 3.76461 13.4998 3.61915 13.5 3.47218C13.5002 3.32521 13.4735 3.17963 13.4214 3.0438C13.3693 2.90797 13.2928 2.78455 13.1964 2.68063C13.0999 2.5767 12.9853 2.4943 12.8592 2.43817C12.7332 2.38204 12.598 2.35327 12.4615 2.35352C12.3251 2.35376 12.1902 2.38301 12.0642 2.43959C11.9383 2.49617 11.8239 2.57899 11.7277 2.68326L5.80362 9.06502C5.60919 9.2745 5.5 9.55863 5.5 9.85487C5.5 10.1511 5.60919 10.4352 5.80362 10.6447L11.7277 17.0265C11.824 17.1302 11.9384 17.2124 12.0642 17.2686C12.19 17.3247 12.3247 17.3535 12.4609 17.3535C12.5971 17.3535 12.7319 17.3246 12.8577 17.2684C12.9835 17.2123 13.0978 17.1301 13.1941 17.0263C13.2903 16.9226 13.3667 16.7995 13.4188 16.664C13.4709 16.5285 13.4977 16.3832 13.4977 16.2365C13.4977 16.0898 13.4708 15.9446 13.4187 15.8091C13.3666 15.6736 13.2902 15.5505 13.1939 15.4468L7.99999 9.85175L13.1939 4.26262Z" fill="#FCFDFF"/>
</svg>
